# WaveFront *.obj file (generated by Autodesk ATF)

mtllib Q21_Half Clip.mtl

g Solid2

v -65.999999 0.000000 -130.000000
v -65.999999 0.000000 0.000000
v -65.999999 25.999999 -64.000001
v -65.999999 26.251884 -67.242785
v -65.999999 26.251884 -60.757217
v -65.999999 27.001491 -70.407777
v -65.999999 27.001491 -57.592220
v -65.999999 28.230839 -73.419056
v -65.999999 28.230839 -54.580941
v -65.999999 29.910440 -76.204381
v -65.999999 29.910440 -51.795616
v -65.999999 32.000000 -130.000000
v -65.999999 32.000000 -78.696938
v -65.999999 32.000000 -49.303060
v -65.999999 32.000000 -32.000000
v -65.999999 51.999998 -32.000000
v -65.999999 51.999998 0.000000
v -44.000001 0.000000 -130.000000
v -44.000001 0.000000 -108.000002
v -44.000001 32.000000 -130.000000
v -44.000001 32.000000 -108.000002
v -44.000001 32.000000 -32.000000
v -44.000001 51.999998 -32.000000
v -43.925624 0.000000 -33.277023
v -43.925624 0.000000 -30.722978
v -43.724208 32.000000 -34.447730
v -43.724208 51.999998 -29.552269
v -43.336620 0.000000 -35.762222
v -43.336620 0.000000 -28.237779
v -42.910657 32.000000 -36.772721
v -42.910657 51.999998 -27.227278
v -42.190366 0.000000 -38.044598
v -42.190366 0.000000 -25.955400
v -41.600146 32.000000 -38.858387
v -41.600146 51.999998 -25.141611
v -40.548658 0.000000 -40.001111
v -40.548658 0.000000 -23.998890
v -39.858389 32.000000 -40.600147
v -39.858389 51.999998 -23.399854
v -38.499999 0.000000 -41.526279
v -38.499999 0.000000 -22.473722
v -37.772722 32.000000 -41.910658
v -37.772722 51.999998 -22.089343
v -36.154835 0.000000 -42.537885
v -36.154835 0.000000 -21.462116
v -35.447731 32.000000 -42.724209
v -35.447731 51.999998 -21.275792
v -33.639593 0.000000 -42.981391
v -33.639593 0.000000 -21.018610
v -33.000000 32.000000 -43.000002
v -33.000000 51.999998 -20.999999
v -31.089871 0.000000 -42.832885
v -31.089871 0.000000 -21.167114
v -30.552270 32.000000 -42.724209
v -30.552270 51.999998 -21.275792
v -28.643122 0.000000 -42.100377
v -28.643122 0.000000 -21.899624
v -28.227279 32.000000 -41.910658
v -28.227279 51.999998 -22.089343
v -26.431255 0.000000 -40.823355
v -26.431255 0.000000 -23.176644
v -26.141613 32.000000 -40.600147
v -26.141613 51.999998 -23.399854
v -24.573512 0.000000 -39.070663
v -24.573512 0.000000 -24.929335
v -24.399853 32.000000 -38.858387
v -24.399853 51.999998 -25.141611
v -23.170042 0.000000 -36.936791
v -23.170042 0.000000 -27.063210
v -23.089342 32.000000 -36.772721
v -23.089342 51.999998 -27.227278
v -22.296507 0.000000 -34.536774
v -22.296507 0.000000 -29.463224
v -22.275794 32.000000 -34.447730
v -22.275794 51.999998 -29.552269
v -22.000000 0.000000 -130.000000
v -22.000000 0.000000 -108.000002
v -22.000000 0.000000 -32.000000
v -22.000000 32.000000 -130.000000
v -22.000000 32.000000 -108.000002
v -22.000000 32.000000 -32.000000
v -22.000000 51.999998 -32.000000
v 0.000000 0.000000 -130.000000
v 0.000000 0.000000 0.000000
v 0.000000 25.999999 -64.000001
v 0.000000 26.251884 -67.242785
v 0.000000 26.251884 -60.757217
v 0.000000 27.001491 -70.407777
v 0.000000 27.001491 -57.592220
v 0.000000 28.230839 -73.419056
v 0.000000 28.230839 -54.580941
v 0.000000 29.910440 -76.204381
v 0.000000 29.910440 -51.795616
v 0.000000 32.000000 -130.000000
v 0.000000 32.000000 -78.696938
v 0.000000 32.000000 -49.303060
v 0.000000 32.000000 -32.000000
v 0.000000 51.999998 -32.000000
v 0.000000 51.999998 0.000000
vt 0.000000 0.000000 0.000000
vt 2.000000 0.000000 0.000000
vt 2.000000 -0.246839 0.000000
vt 2.000000 -0.493679 0.000000
vt 2.000000 -0.740518 0.000000
vt 2.000000 -0.987358 0.000000
vt 2.000000 -1.234197 0.000000
vt 2.000000 -1.481037 0.000000
vt 2.000000 -1.727876 0.000000
vt 2.000000 -1.974715 0.000000
vt 2.000000 -2.221555 0.000000
vt 2.000000 -2.468394 0.000000
vt 2.000000 -2.715234 0.000000
vt 2.000000 -2.962073 0.000000
vt 2.000000 -3.208913 0.000000
vt 2.000000 3.455752 0.000000
vt 0.000000 3.455752 0.000000
vt 0.000000 3.208913 0.000000
vt 0.000000 2.962073 0.000000
vt 0.000000 2.715234 0.000000
vt 0.000000 2.468394 0.000000
vt 0.000000 2.221555 0.000000
vt 0.000000 1.974715 0.000000
vt 0.000000 1.727876 0.000000
vt 0.000000 1.481037 0.000000
vt 0.000000 1.234197 0.000000
vt 0.000000 0.987358 0.000000
vt 0.000000 0.740518 0.000000
vt 0.000000 0.493679 0.000000
vt 0.000000 0.246839 0.000000
vt 5.200000 0.000000 0.000000
vt 5.200000 0.255982 0.000000
vt 5.200000 0.511963 0.000000
vt 5.200000 0.767945 0.000000
vt 5.200000 1.023926 0.000000
vt 5.200000 1.279908 0.000000
vt 5.200000 1.535890 0.000000
vt 5.200000 1.791871 0.000000
vt 5.200000 2.047853 0.000000
vt 5.200000 2.303835 0.000000
vt 5.200000 2.559816 0.000000
vt 5.200000 2.815798 0.000000
vt 5.200000 3.071779 0.000000
vt 5.200000 -3.583743 0.000000
vt 5.200000 -3.327761 0.000000
vt 5.200000 -3.071779 0.000000
vt 5.200000 -2.815798 0.000000
vt 5.200000 -2.559816 0.000000
vt 5.200000 -2.303835 0.000000
vt 5.200000 -2.047853 0.000000
vt 5.200000 -1.791871 0.000000
vt 5.200000 -1.535890 0.000000
vt 5.200000 -1.279908 0.000000
vt 5.200000 -1.023926 0.000000
vt 5.200000 -0.767945 0.000000
vt 5.200000 -0.511963 0.000000
vt 5.200000 -0.255982 0.000000
vt 5.200000 3.327761 0.000000
vt 5.200000 3.327761 0.000000
vt 5.200000 3.327761 0.000000
vt 2.000000 -3.455752 0.000000
vt 2.000000 -3.455752 0.000000
vt -1.600000 1.100000 0.000000
vt -1.355227 1.072421 0.000000
vt -1.122728 0.991066 0.000000
vt -0.914161 0.860015 0.000000
vt -0.739985 0.685839 0.000000
vt -0.608934 0.477272 0.000000
vt -0.527579 0.244773 0.000000
vt -0.500000 0.000000 0.000000
vt -0.527579 -0.244773 0.000000
vt -0.608934 -0.477272 0.000000
vt -0.739985 -0.685839 0.000000
vt -0.914161 -0.860015 0.000000
vt -1.122728 -0.991066 0.000000
vt -1.355227 -1.072421 0.000000
vt -1.600000 -1.100000 0.000000
vt -1.600000 -3.300000 0.000000
vt 1.600000 -3.300000 0.000000
vt 1.600000 3.300000 0.000000
vt -1.600000 3.300000 0.000000
vt 4.400000 2.000000 0.000000
vt 4.400000 0.000000 0.000000
vt 6.600000 0.000000 0.000000
vt 6.600000 2.000000 0.000000
vt 6.599999 4.926578 0.000000
vt 0.000000 4.926578 0.000000
vt 0.000000 4.600997 0.000000
vt 0.000000 4.275415 0.000000
vt 0.000000 3.949835 0.000000
vt 0.000000 3.624253 0.000000
vt 0.000000 3.298672 0.000000
vt 0.000000 2.973091 0.000000
vt 0.000000 2.647510 0.000000
vt 0.000000 2.321929 0.000000
vt 0.000000 1.996347 0.000000
vt 0.000000 1.670766 0.000000
vt 6.599999 1.670766 0.000000
vt 6.599999 1.996347 0.000000
vt 6.599999 2.321929 0.000000
vt 6.599999 2.647510 0.000000
vt 6.599999 2.973091 0.000000
vt 6.599999 3.298672 0.000000
vt 6.599999 3.624253 0.000000
vt 6.599999 3.949835 0.000000
vt 6.599999 4.275415 0.000000
vt 6.599999 4.600997 0.000000
vt 8.069694 3.200000 0.000000
vt 7.820438 2.991044 0.000000
vt 7.541906 2.823084 0.000000
vt 7.240778 2.700149 0.000000
vt 6.924278 2.625188 0.000000
vt 6.600000 2.600000 0.000000
vt 6.275722 2.625188 0.000000
vt 5.959222 2.700149 0.000000
vt 5.658094 2.823084 0.000000
vt 5.379562 2.991044 0.000000
vt 5.130306 3.200000 0.000000
vt 0.000000 3.200000 0.000000
vt 0.000000 0.000000 0.000000
vt 13.000000 0.000000 0.000000
vt 13.000000 5.200000 0.000000
vt 9.800000 5.200000 0.000000
vt 9.800000 3.200000 0.000000
vt -1.369694 -3.300000 0.000000
vt -1.369694 3.300000 0.000000
vt -6.500000 3.300000 0.000000
vt -6.500000 1.100000 0.000000
vt -4.300000 1.100000 0.000000
vt -4.300000 -1.100000 0.000000
vt -6.500000 -1.100000 0.000000
vt -6.500000 -3.300000 0.000000
vt 3.300000 -1.100000 0.000000
vt 3.055227 -1.072421 0.000000
vt 2.822728 -0.991066 0.000000
vt 2.614161 -0.860015 0.000000
vt 2.439985 -0.685839 0.000000
vt 2.308934 -0.477272 0.000000
vt 2.227579 -0.244773 0.000000
vt 2.200000 0.000000 0.000000
vt 2.227579 0.244773 0.000000
vt 2.308934 0.477272 0.000000
vt 2.439985 0.685839 0.000000
vt 2.614161 0.860015 0.000000
vt 2.822728 0.991066 0.000000
vt 3.055227 1.072421 0.000000
vt 3.300000 1.100000 0.000000
vt 3.300000 3.300000 0.000000
vt 1.569694 3.300000 0.000000
vt 1.569694 -3.300000 0.000000
vt 3.300000 -3.300000 0.000000
vt -2.200000 0.000000 0.000000
vt -0.000000 0.000000 0.000000
vt -0.000000 3.200000 0.000000
vt -2.200000 3.200000 0.000000
vt -2.200000 0.000000 0.000000
vt -0.000000 0.000000 0.000000
vt -0.000000 3.200000 0.000000
vt -2.200000 3.200000 0.000000
vt -2.200000 0.000000 0.000000
vt -0.000000 0.000000 0.000000
vt -0.000000 3.200000 0.000000
vt -2.200000 3.200000 0.000000
vt 2.200000 0.000000 0.000000
vt 2.200000 3.200000 0.000000
vt 0.000000 3.200000 0.000000
vt 0.000000 0.000000 0.000000
vt 4.400000 3.200000 0.000000
vt 4.400000 0.000000 0.000000
vt 6.600000 0.000000 0.000000
vt 6.600000 3.200000 0.000000
vt -3.300000 1.100000 0.000000
vt -3.046323 1.070349 0.000000
vt -2.806321 0.982996 0.000000
vt -2.592934 0.842649 0.000000
vt -2.417665 0.656874 0.000000
vt -2.289962 0.435688 0.000000
vt -2.216712 0.191013 0.000000
vt -2.201861 -0.063959 0.000000
vt -2.246212 -0.315484 0.000000
vt -2.347372 -0.550000 0.000000
vt -2.499889 -0.754866 0.000000
vt -2.695540 -0.919037 0.000000
vt -2.923778 -1.033662 0.000000
vt -3.172298 -1.092562 0.000000
vt -3.427702 -1.092562 0.000000
vt -3.676222 -1.033662 0.000000
vt -3.904460 -0.919037 0.000000
vt -4.100111 -0.754866 0.000000
vt -4.252628 -0.550000 0.000000
vt -4.353788 -0.315484 0.000000
vt -4.398139 -0.063959 0.000000
vt -4.383288 0.191013 0.000000
vt -4.310038 0.435688 0.000000
vt -4.182335 0.656874 0.000000
vt -4.007066 0.842649 0.000000
vt -3.793679 0.982996 0.000000
vt -3.553678 1.070349 0.000000
vt 6.500000 -1.100000 0.000000
vt 4.300000 -1.100000 0.000000
vt 4.300000 1.100000 0.000000
vt 6.500000 1.100000 0.000000
vt 6.500000 3.300000 0.000000
vt -6.500000 3.300000 0.000000
vt -6.500000 -3.300000 0.000000
vt 6.500000 -3.300000 0.000000
vt 2.200000 0.000000 0.000000
vt 2.200000 2.000000 0.000000
vt 0.000000 2.000000 0.000000
vt 0.000000 0.000000 0.000000
vt 7.869694 3.200000 0.000000
vt 7.620438 2.991044 0.000000
vt 7.341906 2.823084 0.000000
vt 7.040778 2.700149 0.000000
vt 6.724278 2.625188 0.000000
vt 6.400000 2.600000 0.000000
vt 6.075722 2.625188 0.000000
vt 5.759222 2.700149 0.000000
vt 5.458094 2.823084 0.000000
vt 5.179562 2.991044 0.000000
vt 4.930306 3.200000 0.000000
vt 3.200000 3.200000 0.000000
vt 3.200000 5.200000 0.000000
vt 0.000000 5.200000 0.000000
vt 0.000000 0.000000 0.000000
vt 13.000000 0.000000 0.000000
vt 13.000000 3.200000 0.000000
vt 0.000000 0.000000 0.000000
vt 6.600000 0.000000 0.000000
vt 6.600000 5.200000 0.000000
vt 0.000000 5.200000 0.000000
vn -0.100000 0.000000 0.000000
vn -0.100000 0.000000 0.000000
vn -0.097493 0.000000 0.022252
vn -0.090097 0.000000 0.043388
vn -0.078183 0.000000 0.062349
vn -0.062349 0.000000 0.078183
vn -0.043388 0.000000 0.090097
vn -0.022252 0.000000 0.097493
vn 0.000000 0.000000 0.100000
vn 0.022252 0.000000 0.097493
vn 0.043388 0.000000 0.090097
vn 0.062349 0.000000 0.078183
vn 0.078183 0.000000 0.062349
vn 0.090097 0.000000 0.043388
vn 0.097493 0.000000 0.022252
vn 0.100000 0.000000 0.000000
vn 0.100000 0.000000 0.000000
vn 0.097493 0.000000 -0.022252
vn 0.090097 0.000000 -0.043388
vn 0.078183 0.000000 -0.062349
vn 0.062349 0.000000 -0.078183
vn 0.043388 0.000000 -0.090097
vn 0.022252 0.000000 -0.097493
vn 0.000000 0.000000 -0.100000
vn -0.022252 0.000000 -0.097493
vn -0.043388 0.000000 -0.090097
vn -0.062349 0.000000 -0.078183
vn -0.078183 0.000000 -0.062349
vn -0.090097 0.000000 -0.043388
vn -0.097493 0.000000 -0.022252
vn -0.100000 0.000000 0.000000
vn -0.097304 0.000000 -0.023062
vn -0.089363 0.000000 -0.044880
vn -0.076604 0.000000 -0.064279
vn -0.059716 0.000000 -0.080212
vn -0.039608 0.000000 -0.091822
vn -0.017365 0.000000 -0.098481
vn 0.005814 0.000000 -0.099831
vn 0.028680 0.000000 -0.095799
vn 0.050000 0.000000 -0.086603
vn 0.068624 0.000000 -0.072737
vn 0.083549 0.000000 -0.054951
vn 0.093969 0.000000 -0.034202
vn 0.099324 0.000000 -0.011609
vn 0.099324 0.000000 0.011609
vn 0.093969 0.000000 0.034202
vn 0.083549 0.000000 0.054951
vn 0.068624 0.000000 0.072737
vn 0.050000 0.000000 0.086603
vn 0.028680 0.000000 0.095799
vn 0.005814 0.000000 0.099831
vn -0.017365 0.000000 0.098481
vn -0.039608 0.000000 0.091822
vn -0.059716 0.000000 0.080212
vn -0.076604 0.000000 0.064279
vn -0.089363 0.000000 0.044880
vn -0.097304 0.000000 0.023062
vn 0.099324 0.000000 -0.011609
vn 0.099324 0.000000 -0.011609
vn 0.099324 0.000000 -0.011609
vn 0.100000 0.000000 0.000000
vn 0.100000 0.000000 0.000000
vn 0.000000 0.100000 0.000000
vn 0.000000 0.100000 0.000000
vn 0.000000 0.100000 0.000000
vn 0.000000 0.100000 0.000000
vn 0.000000 0.100000 0.000000
vn 0.000000 0.100000 0.000000
vn 0.000000 0.100000 0.000000
vn 0.000000 0.100000 0.000000
vn 0.000000 0.100000 0.000000
vn 0.000000 0.100000 0.000000
vn 0.000000 0.100000 0.000000
vn 0.000000 0.100000 0.000000
vn 0.000000 0.100000 0.000000
vn 0.000000 0.100000 0.000000
vn 0.000000 0.100000 0.000000
vn 0.000000 0.100000 0.000000
vn 0.000000 0.100000 0.000000
vn 0.000000 0.100000 0.000000
vn 0.000000 0.100000 0.000000
vn 0.000000 0.000000 -0.100000
vn 0.000000 0.000000 -0.100000
vn 0.000000 0.000000 -0.100000
vn 0.000000 0.000000 -0.100000
vn 0.000000 0.071429 -0.069985
vn 0.000000 0.071429 -0.069985
vn 0.000000 0.081379 -0.058116
vn 0.000000 0.089377 -0.044853
vn 0.000000 0.095231 -0.030513
vn 0.000000 0.098801 -0.015442
vn 0.000000 0.100000 0.000000
vn 0.000000 0.098801 0.015442
vn 0.000000 0.095231 0.030513
vn 0.000000 0.089377 0.044853
vn 0.000000 0.081379 0.058116
vn 0.000000 0.071429 0.069985
vn 0.000000 0.071429 0.069985
vn 0.000000 0.081379 0.058116
vn 0.000000 0.089377 0.044853
vn 0.000000 0.095231 0.030513
vn 0.000000 0.098801 0.015442
vn 0.000000 0.100000 0.000000
vn 0.000000 0.098801 -0.015442
vn 0.000000 0.095231 -0.030513
vn 0.000000 0.089377 -0.044853
vn 0.000000 0.081379 -0.058116
vn -0.100000 0.000000 0.000000
vn -0.100000 0.000000 0.000000
vn -0.100000 0.000000 0.000000
vn -0.100000 0.000000 0.000000
vn -0.100000 0.000000 0.000000
vn -0.100000 0.000000 0.000000
vn -0.100000 0.000000 0.000000
vn -0.100000 0.000000 0.000000
vn -0.100000 0.000000 0.000000
vn -0.100000 0.000000 0.000000
vn -0.100000 0.000000 0.000000
vn -0.100000 0.000000 0.000000
vn -0.100000 0.000000 0.000000
vn -0.100000 0.000000 0.000000
vn -0.100000 0.000000 0.000000
vn -0.100000 0.000000 0.000000
vn -0.100000 0.000000 0.000000
vn 0.000000 0.100000 0.000000
vn 0.000000 0.100000 0.000000
vn 0.000000 0.100000 0.000000
vn 0.000000 0.100000 0.000000
vn 0.000000 0.100000 0.000000
vn 0.000000 0.100000 0.000000
vn 0.000000 0.100000 0.000000
vn 0.000000 0.100000 0.000000
vn 0.000000 0.100000 0.000000
vn 0.000000 0.100000 0.000000
vn 0.000000 0.100000 0.000000
vn 0.000000 0.100000 0.000000
vn 0.000000 0.100000 0.000000
vn 0.000000 0.100000 0.000000
vn 0.000000 0.100000 0.000000
vn 0.000000 0.100000 0.000000
vn 0.000000 0.100000 0.000000
vn 0.000000 0.100000 0.000000
vn 0.000000 0.100000 0.000000
vn 0.000000 0.100000 0.000000
vn 0.000000 0.100000 0.000000
vn 0.000000 0.100000 0.000000
vn 0.000000 0.100000 0.000000
vn 0.000000 0.100000 0.000000
vn 0.000000 0.100000 0.000000
vn 0.000000 0.100000 0.000000
vn 0.000000 0.100000 0.000000
vn 0.100000 0.000000 0.000000
vn 0.100000 0.000000 0.000000
vn 0.100000 0.000000 0.000000
vn 0.100000 0.000000 0.000000
vn 0.000000 0.000000 -0.100000
vn 0.000000 0.000000 -0.100000
vn 0.000000 0.000000 -0.100000
vn 0.000000 0.000000 -0.100000
vn -0.100000 0.000000 0.000000
vn -0.100000 0.000000 0.000000
vn -0.100000 0.000000 0.000000
vn -0.100000 0.000000 0.000000
vn 0.000000 0.000000 -0.100000
vn 0.000000 0.000000 -0.100000
vn 0.000000 0.000000 -0.100000
vn 0.000000 0.000000 -0.100000
vn 0.000000 0.000000 -0.100000
vn 0.000000 0.000000 -0.100000
vn 0.000000 0.000000 -0.100000
vn 0.000000 0.000000 -0.100000
vn 0.000000 -0.100000 0.000000
vn 0.000000 -0.100000 0.000000
vn 0.000000 -0.100000 0.000000
vn 0.000000 -0.100000 0.000000
vn 0.000000 -0.100000 0.000000
vn 0.000000 -0.100000 0.000000
vn 0.000000 -0.100000 0.000000
vn 0.000000 -0.100000 0.000000
vn 0.000000 -0.100000 0.000000
vn 0.000000 -0.100000 0.000000
vn 0.000000 -0.100000 0.000000
vn 0.000000 -0.100000 0.000000
vn 0.000000 -0.100000 0.000000
vn 0.000000 -0.100000 0.000000
vn 0.000000 -0.100000 0.000000
vn 0.000000 -0.100000 0.000000
vn 0.000000 -0.100000 0.000000
vn 0.000000 -0.100000 0.000000
vn 0.000000 -0.100000 0.000000
vn 0.000000 -0.100000 0.000000
vn 0.000000 -0.100000 0.000000
vn 0.000000 -0.100000 0.000000
vn 0.000000 -0.100000 0.000000
vn 0.000000 -0.100000 0.000000
vn 0.000000 -0.100000 0.000000
vn 0.000000 -0.100000 0.000000
vn 0.000000 -0.100000 0.000000
vn 0.000000 -0.100000 0.000000
vn 0.000000 -0.100000 0.000000
vn 0.000000 -0.100000 0.000000
vn 0.000000 -0.100000 0.000000
vn 0.000000 -0.100000 0.000000
vn 0.000000 -0.100000 0.000000
vn 0.000000 -0.100000 0.000000
vn 0.000000 -0.100000 0.000000
vn 0.000000 0.000000 -0.100000
vn 0.000000 0.000000 -0.100000
vn 0.000000 0.000000 -0.100000
vn 0.000000 0.000000 -0.100000
vn 0.100000 0.000000 0.000000
vn 0.100000 0.000000 0.000000
vn 0.100000 0.000000 0.000000
vn 0.100000 0.000000 0.000000
vn 0.100000 0.000000 0.000000
vn 0.100000 0.000000 0.000000
vn 0.100000 0.000000 0.000000
vn 0.100000 0.000000 0.000000
vn 0.100000 0.000000 0.000000
vn 0.100000 0.000000 0.000000
vn 0.100000 0.000000 0.000000
vn 0.100000 0.000000 0.000000
vn 0.100000 0.000000 0.000000
vn 0.100000 0.000000 0.000000
vn 0.100000 0.000000 0.000000
vn 0.100000 0.000000 0.000000
vn 0.100000 0.000000 0.000000
vn 0.000000 0.000000 0.100000
vn 0.000000 0.000000 0.100000
vn 0.000000 0.000000 0.100000
vn 0.000000 0.000000 0.100000
usemtl 191,191,191
f 82/1/1 81/2/2 75/30/30
f 75/30/30 81/2/2 73/32/32
f 75/30/30 73/32/32 71/29/29
f 71/29/29 73/32/32 69/33/33
f 71/29/29 69/33/33 67/28/28
f 67/28/28 69/33/33 65/34/34
f 67/28/28 65/34/34 63/27/27
f 63/27/27 65/34/34 61/35/35
f 63/27/27 61/35/35 59/26/26
f 59/26/26 61/35/35 57/36/36
f 59/26/26 57/36/36 55/25/25
f 55/25/25 57/36/36 53/37/37
f 55/25/25 53/37/37 51/24/24
f 51/24/24 53/37/37 49/38/38
f 51/24/24 49/38/38 47/23/23
f 47/23/23 49/38/38 45/39/39
f 47/23/23 45/39/39 43/22/22
f 43/22/22 45/39/39 41/40/40
f 43/22/22 41/40/40 39/21/21
f 39/21/21 41/40/40 37/41/41
f 39/21/21 37/41/41 35/20/20
f 35/20/20 37/41/41 33/42/42
f 35/20/20 33/42/42 31/19/19
f 31/19/19 33/42/42 29/43/43
f 31/19/19 29/43/43 27/18/18
f 27/18/18 29/43/43 25/58/58
f 27/18/18 25/59/59 23/17/17
f 23/17/17 25/60/60 22/16/16
f 22/61/61 25/44/44 24/45/45
f 22/62/62 24/45/45 26/15/15
f 26/15/15 24/45/45 28/46/46
f 26/15/15 28/46/46 30/14/14
f 30/14/14 28/46/46 32/47/47
f 30/14/14 32/47/47 34/13/13
f 34/13/13 32/47/47 36/48/48
f 34/13/13 36/48/48 38/12/12
f 38/12/12 36/48/48 40/49/49
f 38/12/12 40/49/49 42/11/11
f 42/11/11 40/49/49 44/50/50
f 42/11/11 44/50/50 46/10/10
f 46/10/10 44/50/50 48/51/51
f 46/10/10 48/51/51 50/9/9
f 50/9/9 48/51/51 52/52/52
f 50/9/9 52/52/52 54/8/8
f 54/8/8 52/52/52 56/53/53
f 54/8/8 56/53/53 58/7/7
f 58/7/7 56/53/53 60/54/54
f 58/7/7 60/54/54 62/6/6
f 62/6/6 60/54/54 64/55/55
f 62/6/6 64/55/55 66/5/5
f 66/5/5 64/55/55 68/56/56
f 66/5/5 68/56/56 70/4/4
f 70/4/4 68/56/56 72/57/57
f 70/4/4 72/57/57 74/3/3
f 74/3/3 72/57/57 78/31/31
f 74/3/3 78/31/31 81/2/2
f 81/2/2 78/31/31 73/32/32
f 82/63/63 75/64/64 98/81/81
f 98/81/81 75/64/64 71/65/65
f 98/81/81 71/65/65 67/66/66
f 67/66/66 63/67/67 98/81/81
f 98/81/81 63/67/67 99/80/80
f 99/80/80 63/67/67 59/68/68
f 99/80/80 59/68/68 55/69/69
f 55/69/69 51/70/70 99/80/80
f 99/80/80 51/70/70 17/79/79
f 17/79/79 51/70/70 47/71/71
f 17/79/79 47/71/71 43/72/72
f 43/72/72 39/73/73 17/79/79
f 17/79/79 39/73/73 16/78/78
f 16/78/78 39/73/73 35/74/74
f 16/78/78 35/74/74 31/75/75
f 31/75/75 27/76/76 16/78/78
f 16/78/78 27/76/76 23/77/77
f 22/83/83 15/84/84 23/82/82
f 23/82/82 15/84/84 16/85/85
f 14/86/86 96/87/87 11/107/107
f 11/107/107 96/87/87 93/88/88
f 11/107/107 93/88/88 91/89/89
f 11/107/107 91/89/89 9/106/106
f 9/106/106 91/89/89 89/90/90
f 9/106/106 89/90/90 7/105/105
f 7/105/105 89/90/90 87/91/91
f 7/105/105 87/91/91 5/104/104
f 5/104/104 87/91/91 85/92/92
f 5/104/104 85/92/92 3/103/103
f 3/103/103 85/92/92 86/93/93
f 3/103/103 86/93/93 4/102/102
f 4/102/102 86/93/93 88/94/94
f 4/102/102 88/94/94 6/101/101
f 6/101/101 88/94/94 90/95/95
f 6/101/101 90/95/95 8/100/100
f 8/100/100 90/95/95 92/96/96
f 8/100/100 92/96/96 10/99/99
f 10/99/99 92/96/96 13/98/98
f 13/98/98 92/96/96 95/97/97
f 14/108/108 11/109/109 15/124/124
f 15/124/124 11/109/109 9/110/110
f 15/124/124 9/110/110 7/111/111
f 15/124/124 7/111/111 2/121/121
f 2/121/121 7/111/111 5/112/112
f 2/121/121 5/112/112 3/113/113
f 2/121/121 3/113/113 1/120/120
f 1/120/120 3/113/113 4/114/114
f 1/120/120 4/114/114 6/115/115
f 6/115/115 8/116/116 1/120/120
f 1/120/120 8/116/116 12/119/119
f 12/119/119 8/116/116 10/117/117
f 12/119/119 10/117/117 13/118/118
f 2/121/121 17/122/122 15/124/124
f 15/124/124 17/122/122 16/123/123
f 95/126/126 80/129/129 13/125/125
f 13/125/125 80/129/129 21/130/130
f 13/125/125 21/130/130 12/132/132
f 12/132/132 21/130/130 20/131/131
f 95/126/126 94/127/127 80/129/129
f 80/129/129 94/127/127 79/128/128
f 22/133/133 26/134/134 15/151/151
f 15/151/151 26/134/134 30/135/135
f 15/151/151 30/135/135 34/136/136
f 15/151/151 34/136/136 14/150/150
f 14/150/150 34/136/136 38/137/137
f 14/150/150 38/137/137 42/138/138
f 42/138/138 46/139/139 14/150/150
f 14/150/150 46/139/139 50/140/140
f 14/150/150 50/140/140 96/149/149
f 96/149/149 50/140/140 54/141/141
f 96/149/149 54/141/141 58/142/142
f 58/142/142 62/143/143 96/149/149
f 96/149/149 62/143/143 66/144/144
f 96/149/149 66/144/144 97/148/148
f 97/148/148 66/144/144 70/145/145
f 97/148/148 70/145/145 74/146/146
f 74/146/146 81/147/147 97/148/148
f 20/152/152 21/153/153 18/155/155
f 18/155/155 21/153/153 19/154/154
f 21/156/156 80/157/157 19/159/159
f 19/159/159 80/157/157 77/158/158
f 80/160/160 79/161/161 77/163/163
f 77/163/163 79/161/161 76/162/162
f 79/165/165 94/166/166 76/164/164
f 76/164/164 94/166/166 83/167/167
f 18/169/169 1/170/170 20/168/168
f 20/168/168 1/170/170 12/171/171
f 73/198/198 78/172/172 84/204/204
f 84/204/204 78/172/172 72/173/173
f 84/204/204 72/173/173 83/203/203
f 83/203/203 72/173/173 68/174/174
f 83/203/203 68/174/174 77/201/201
f 77/201/201 68/174/174 64/175/175
f 77/201/201 64/175/175 60/176/176
f 60/176/176 56/177/177 77/201/201
f 77/201/201 56/177/177 52/178/178
f 77/201/201 52/178/178 48/179/179
f 77/201/201 48/179/179 19/200/200
f 19/200/200 48/179/179 44/180/180
f 19/200/200 44/180/180 40/181/181
f 40/181/181 36/182/182 19/200/200
f 19/200/200 36/182/182 32/183/183
f 19/200/200 32/183/183 28/184/184
f 24/185/185 2/205/205 28/184/184
f 28/184/184 2/205/205 1/206/206
f 28/184/184 1/206/206 19/200/200
f 19/200/200 1/206/206 18/199/199
f 24/185/185 25/186/186 2/205/205
f 2/205/205 25/186/186 29/187/187
f 2/205/205 29/187/187 33/188/188
f 33/188/188 37/189/189 2/205/205
f 2/205/205 37/189/189 41/190/190
f 2/205/205 41/190/190 45/191/191
f 45/191/191 49/192/192 2/205/205
f 2/205/205 49/192/192 84/204/204
f 84/204/204 49/192/192 53/193/193
f 84/204/204 53/193/193 57/194/194
f 57/194/194 61/195/195 84/204/204
f 84/204/204 61/195/195 65/196/196
f 84/204/204 65/196/196 69/197/197
f 69/197/197 73/198/198 84/204/204
f 77/201/201 76/202/202 83/203/203
f 82/208/208 98/209/209 81/207/207
f 81/207/207 98/209/209 97/210/210
f 95/211/211 92/212/212 94/227/227
f 94/227/227 92/212/212 90/213/213
f 94/227/227 90/213/213 83/226/226
f 83/226/226 90/213/213 88/214/214
f 83/226/226 88/214/214 86/215/215
f 86/215/215 85/216/216 83/226/226
f 83/226/226 85/216/216 84/225/225
f 84/225/225 85/216/216 87/217/217
f 84/225/225 87/217/217 89/218/218
f 84/225/225 89/218/218 97/222/222
f 97/222/222 89/218/218 91/219/219
f 97/222/222 91/219/219 93/220/220
f 93/220/220 96/221/221 97/222/222
f 98/223/223 99/224/224 97/222/222
f 97/222/222 99/224/224 84/225/225
f 2/228/228 84/229/229 17/231/231
f 17/231/231 84/229/229 99/230/230
# 99 vertices
# 231 texture params
# 231 normals
# 198 facets

# 1 groups
