# WaveFront *.obj file (generated by Autodesk ATF)

mtllib Q23_Bracket.mtl

g Solid2

v -125.000000 0.000000 -126.000004
v -125.000000 0.000000 0.000000
v -125.000000 75.000000 -126.000004
v -125.000000 75.000000 0.000000
v -100.000000 25.000000 -126.000004
v -100.000000 25.000000 -50.000000
v -100.000000 75.000000 -126.000004
v -100.000000 75.000000 -50.000000
v -70.000000 25.000000 -50.000000
v -70.000000 25.000000 -25.999999
v -70.000000 25.000000 -6.000000
v -70.000000 25.000000 0.000000
v -70.000000 75.000000 -50.000000
v -70.000000 75.000000 -25.999999
v -70.000000 75.000000 -6.000000
v -70.000000 75.000000 0.000000
v -38.000000 0.000000 -126.000004
v -38.000000 0.000000 -70.000000
v -38.000000 25.000000 -126.000004
v -38.000000 25.000000 -70.000000
v 0.000000 0.000000 -70.000000
v 0.000000 0.000000 0.000000
v 0.000000 25.000000 -70.000000
v 0.000000 25.000000 -25.999999
v 0.000000 25.000000 -6.000000
v 0.000000 25.000000 0.000000
vt 0.700000 2.450000 0.000000
vt 0.700000 6.250000 0.000000
vt -6.300000 6.250000 0.000000
vt -6.300000 -6.250000 0.000000
vt 6.300000 -6.250000 0.000000
vt 6.300000 2.450000 0.000000
vt 0.000000 0.000000 0.000000
vt 12.600000 0.000000 0.000000
vt 12.600000 7.500000 0.000000
vt 0.000000 7.500000 0.000000
vt 6.300000 -1.250000 0.000000
vt 6.300000 4.250000 0.000000
vt 5.700000 4.250000 0.000000
vt 3.700000 4.250000 0.000000
vt 1.300000 4.250000 0.000000
vt 1.300000 1.250000 0.000000
vt -6.300000 1.250000 0.000000
vt -6.300000 -1.250000 0.000000
vt 3.800000 2.500000 0.000000
vt 3.800000 0.000000 0.000000
vt 12.500000 0.000000 0.000000
vt 12.500000 7.500000 0.000000
vt 10.000000 7.500000 0.000000
vt 10.000000 2.500000 0.000000
vt 0.000000 0.000000 0.000000
vt 12.500000 0.000000 0.000000
vt 12.500000 2.500000 0.000000
vt 5.500000 2.500000 0.000000
vt 5.500000 7.500000 0.000000
vt 0.000000 7.500000 0.000000
vt 7.000000 0.000000 0.000000
vt 7.000000 2.500000 0.000000
vt 2.600000 2.500000 0.000000
vt 0.600000 2.500000 0.000000
vt 0.000000 2.500000 0.000000
vt 0.000000 0.000000 0.000000
vt 5.000000 5.000000 0.000000
vt 5.000000 0.000000 0.000000
vt 12.600000 0.000000 0.000000
vt 12.600000 5.000000 0.000000
vt 3.700000 -0.750000 0.000000
vt 3.700000 6.250000 0.000000
vt -0.700000 6.250000 0.000000
vt -0.700000 2.450000 0.000000
vt -6.300000 2.450000 0.000000
vt -6.300000 -3.750000 0.000000
vt 1.300000 -3.750000 0.000000
vt 1.300000 -0.750000 0.000000
vt 5.700000 6.250000 0.000000
vt 5.700000 -0.750000 0.000000
vt 6.300000 -0.750000 0.000000
vt 6.300000 6.250000 0.000000
vt 0.000000 0.000000 0.000000
vt 3.000000 0.000000 0.000000
vt 3.000000 5.000000 0.000000
vt 0.000000 5.000000 0.000000
vt -5.600000 0.000000 0.000000
vt -0.000000 0.000000 0.000000
vt -0.000000 2.500000 0.000000
vt -5.600000 2.500000 0.000000
vt -3.800000 0.000000 0.000000
vt -0.000000 0.000000 0.000000
vt -0.000000 2.500000 0.000000
vt -3.800000 2.500000 0.000000
vt 0.000000 0.000000 0.000000
vt 8.602325 0.000000 0.000000
vt 8.602325 2.000000 0.000000
vt 0.000000 2.000000 0.000000
vt -3.500000 2.500000 0.000000
vt -3.500000 -2.500000 0.000000
vt 3.500000 -2.500000 0.000000
vt 3.500000 -2.500000 0.000000
vt 3.500000 2.500000 0.000000
vt -3.500000 -2.500000 0.000000
vt 0.600000 0.000000 0.000000
vt 0.600000 5.000000 0.000000
vt 0.000000 5.000000 0.000000
vt 0.000000 0.000000 0.000000
vt 2.600000 5.000000 0.000000
vt 2.600000 0.000000 0.000000
vt 5.000000 0.000000 0.000000
vt 5.000000 5.000000 0.000000
vn 0.000000 -0.100000 0.000000
vn 0.000000 -0.100000 0.000000
vn 0.000000 -0.100000 0.000000
vn 0.000000 -0.100000 0.000000
vn 0.000000 -0.100000 0.000000
vn 0.000000 -0.100000 0.000000
vn -0.100000 0.000000 0.000000
vn -0.100000 0.000000 0.000000
vn -0.100000 0.000000 0.000000
vn -0.100000 0.000000 0.000000
vn 0.000000 0.100000 0.000000
vn 0.000000 0.100000 0.000000
vn 0.000000 0.100000 0.000000
vn 0.000000 0.100000 0.000000
vn 0.000000 0.100000 0.000000
vn 0.000000 0.100000 0.000000
vn 0.000000 0.100000 0.000000
vn 0.000000 0.100000 0.000000
vn 0.000000 0.000000 -0.100000
vn 0.000000 0.000000 -0.100000
vn 0.000000 0.000000 -0.100000
vn 0.000000 0.000000 -0.100000
vn 0.000000 0.000000 -0.100000
vn 0.000000 0.000000 -0.100000
vn 0.000000 0.000000 0.100000
vn 0.000000 0.000000 0.100000
vn 0.000000 0.000000 0.100000
vn 0.000000 0.000000 0.100000
vn 0.000000 0.000000 0.100000
vn 0.000000 0.000000 0.100000
vn 0.100000 0.000000 0.000000
vn 0.100000 0.000000 0.000000
vn 0.100000 0.000000 0.000000
vn 0.100000 0.000000 0.000000
vn 0.100000 0.000000 0.000000
vn 0.100000 0.000000 0.000000
vn 0.100000 0.000000 0.000000
vn 0.100000 0.000000 0.000000
vn 0.100000 0.000000 0.000000
vn 0.100000 0.000000 0.000000
vn 0.000000 0.100000 0.000000
vn 0.000000 0.100000 0.000000
vn 0.000000 0.100000 0.000000
vn 0.000000 0.100000 0.000000
vn 0.000000 0.100000 0.000000
vn 0.000000 0.100000 0.000000
vn 0.000000 0.100000 0.000000
vn 0.000000 0.100000 0.000000
vn 0.000000 0.100000 0.000000
vn 0.000000 0.100000 0.000000
vn 0.000000 0.100000 0.000000
vn 0.000000 0.100000 0.000000
vn 0.000000 0.000000 -0.100000
vn 0.000000 0.000000 -0.100000
vn 0.000000 0.000000 -0.100000
vn 0.000000 0.000000 -0.100000
vn 0.100000 0.000000 0.000000
vn 0.100000 0.000000 0.000000
vn 0.100000 0.000000 0.000000
vn 0.100000 0.000000 0.000000
vn 0.000000 0.000000 -0.100000
vn 0.000000 0.000000 -0.100000
vn 0.000000 0.000000 -0.100000
vn 0.000000 0.000000 -0.100000
vn 0.058124 0.081373 0.000000
vn 0.058124 0.081373 0.000000
vn 0.058124 0.081373 0.000000
vn 0.058124 0.081373 0.000000
vn 0.000000 0.000000 0.100000
vn 0.000000 0.000000 0.100000
vn 0.000000 0.000000 0.100000
vn 0.000000 0.000000 -0.100000
vn 0.000000 0.000000 -0.100000
vn 0.000000 0.000000 -0.100000
vn 0.100000 0.000000 0.000000
vn 0.100000 0.000000 0.000000
vn 0.100000 0.000000 0.000000
vn 0.100000 0.000000 0.000000
vn 0.100000 0.000000 0.000000
vn 0.100000 0.000000 0.000000
vn 0.100000 0.000000 0.000000
vn 0.100000 0.000000 0.000000
usemtl 191,191,191
f 21/2/2 22/3/3 18/1/1
f 18/1/1 22/3/3 2/4/4
f 18/1/1 2/4/4 1/5/5
f 1/5/5 17/6/6 18/1/1
f 1/7/7 2/8/8 3/10/10
f 3/10/10 2/8/8 4/9/9
f 3/18/18 4/11/11 8/16/16
f 8/16/16 4/11/11 16/12/12
f 8/16/16 16/12/12 15/13/13
f 15/13/13 14/14/14 8/16/16
f 8/16/16 14/14/14 13/15/15
f 8/16/16 7/17/17 3/18/18
f 19/19/19 17/20/20 5/24/24
f 5/24/24 17/20/20 1/21/21
f 5/24/24 1/21/21 3/22/22
f 3/22/22 7/23/23 5/24/24
f 4/30/30 2/25/25 12/28/28
f 12/28/28 2/25/25 22/26/26
f 12/28/28 22/26/26 26/27/27
f 12/28/28 16/29/29 4/30/30
f 23/32/32 24/33/33 21/31/31
f 21/31/31 24/33/33 22/36/36
f 22/36/36 24/33/33 25/34/34
f 22/36/36 25/34/34 26/35/35
f 6/38/38 5/39/39 8/37/37
f 8/37/37 5/39/39 7/40/40
f 9/48/48 10/41/41 20/44/44
f 20/44/44 10/41/41 24/42/42
f 20/44/44 24/42/42 23/43/43
f 19/45/45 5/46/46 20/44/44
f 20/44/44 5/46/46 9/48/48
f 5/46/46 6/47/47 9/48/48
f 11/50/50 12/51/51 25/49/49
f 25/49/49 12/51/51 26/52/52
f 9/53/53 6/54/54 13/56/56
f 13/56/56 6/54/54 8/55/55
f 19/57/57 20/58/58 17/60/60
f 17/60/60 20/58/58 18/59/59
f 20/61/61 23/62/62 18/64/64
f 18/64/64 23/62/62 21/63/63
f 15/65/65 25/66/66 14/68/68
f 14/68/68 25/66/66 24/67/67
f 15/69/69 11/70/70 25/71/71
f 10/72/72 14/73/73 24/74/74
f 15/76/76 16/77/77 11/75/75
f 11/75/75 16/77/77 12/78/78
f 10/80/80 9/81/81 14/79/79
f 14/79/79 9/81/81 13/82/82
# 26 vertices
# 82 texture params
# 82 normals
# 48 facets

# 1 groups
